<?xml version="1.0" encoding="UTF-8"?>
<svg width="60px" height="60px" viewBox="0 0 60 60" version="1.1" xmlns="http://www.w3.org/2000/svg" xmlns:xlink="http://www.w3.org/1999/xlink">
    <!-- Generator: Sketch 51.3 (57544) - http://www.bohemiancoding.com/sketch -->
    <title>icon-gdpr</title>
    <desc>Created with Sketch.</desc>
    <defs></defs>
    <g id="Page-1" stroke="none" stroke-width="1" fill="none" fill-rule="evenodd">
        <g id="Odoo-Store-Documentation" transform="translate(-252.000000, -2633.000000)">
            <g id="GDPR" transform="translate(231.000000, 2610.000000)">
                <g id="icon-gdpr" transform="translate(21.000000, 23.000000)">
                    <circle id="Oval" fill="#E9E9E9" cx="30" cy="30" r="30"></circle>
                    <g id="Group-3" transform="translate(20.000000, 16.000000)" fill-rule="nonzero">
                        <path d="M7.84444444,2.42222222 C6.58032602,2.42222222 5.55555556,3.44699268 5.55555556,4.71111111 L5.55555556,9.28888889 C5.55555556,10.5530073 6.58032602,11.5777778 7.84444444,11.5777778 L12.4222222,11.5777778 C13.6863406,11.5777778 14.7111111,10.5530073 14.7111111,9.28888889 L14.7111111,4.71111111 C14.7111111,3.44699268 13.6863406,2.42222222 12.4222222,2.42222222 L7.84444444,2.42222222 Z M7.84444444,0.133333333 L12.4222222,0.133333333 C14.9504591,0.133333333 17,2.18287426 17,4.71111111 L17,9.28888889 C17,11.8171257 14.9504591,13.8666667 12.4222222,13.8666667 L7.84444444,13.8666667 C5.31620759,13.8666667 3.26666667,11.8171257 3.26666667,9.28888889 L3.26666667,4.71111111 C3.26666667,2.18287426 5.31620759,0.133333333 7.84444444,0.133333333 Z" id="Rectangle-5-Copy" fill="#575757"></path>
                        <rect id="Rectangle-5" fill="#777777" x="0" y="9" width="20" height="16.4888889"></rect>
                        <path d="M9,19.7324356 C8.40219863,19.3866262 8,18.7402824 8,18 C8,16.8954305 8.8954305,16 10,16 C11.1045695,16 12,16.8954305 12,18 C12,18.7402824 11.5978014,19.3866262 11,19.7324356 L11,23 L9,23 L9,19.7324356 Z" id="Combined-Shape" fill="#3C3C3C"></path>
                    </g>
                    <g id="star-(1)" transform="translate(7.000000, 6.000000)" fill="#777777" fill-rule="nonzero">
                        <path d="M22.1005649,1.87239456 L22.6797273,0.699075252 C22.8107481,0.433641583 23.1892516,0.433641583 23.3202723,0.699075252 L23.8994348,1.87239456 L25.1946462,2.06170912 C25.4874911,2.10451278 25.6042067,2.46447845 25.3921958,2.67097702 L24.4552766,3.58353639 L24.6763927,4.87275611 C24.7264382,5.16454646 24.4201517,5.38704708 24.1581249,5.2492498 L22.9999998,4.64020346 L21.8418748,5.2492498 C21.579848,5.38704708 21.2735615,5.16454646 21.3236069,4.87275611 L21.5447231,3.58353639 L20.6078038,2.67097702 C20.395793,2.46447845 20.5125086,2.10451278 20.8053534,2.06170912 L22.1005649,1.87239456 Z" id="Shape"></path>
                        <path d="M22.1005649,43.8723946 L22.6797273,42.6990753 C22.8107481,42.4336416 23.1892516,42.4336416 23.3202723,42.6990753 L23.8994348,43.8723946 L25.1946462,44.0617091 C25.4874911,44.1045128 25.6042067,44.4644784 25.3921958,44.670977 L24.4552766,45.5835364 L24.6763927,46.8727561 C24.7264382,47.1645465 24.4201517,47.3870471 24.1581249,47.2492498 L22.9999998,46.6402035 L21.8418748,47.2492498 C21.579848,47.3870471 21.2735615,47.1645465 21.3236069,46.8727561 L21.5447231,45.5835364 L20.6078038,44.670977 C20.395793,44.4644784 20.5125086,44.1045128 20.8053534,44.0617091 L22.1005649,43.8723946 Z" id="Shape-Copy"></path>
                        <path d="M43.6011091,22.3723946 L44.1802715,21.1990753 C44.3112923,20.9336416 44.6897957,20.9336416 44.8208165,21.1990753 L45.3999789,22.3723946 L46.6951904,22.5617091 C46.9880352,22.6045128 47.1047509,22.9644784 46.89274,23.170977 L45.9558207,24.0835364 L46.1769369,25.3727561 C46.2269824,25.6645465 45.9206959,25.8870471 45.658669,25.7492498 L44.500544,25.1402035 L43.342419,25.7492498 C43.0803921,25.8870471 42.7741056,25.6645465 42.8241511,25.3727561 L43.0452673,24.0835364 L42.108348,23.170977 C41.8963371,22.9644784 42.0130528,22.6045128 42.3058976,22.5617091 L43.6011091,22.3723946 Z" id="Shape-Copy-2"></path>
                        <path d="M1.60110908,22.3723946 L2.18027148,21.1990753 C2.31129226,20.9336416 2.68979574,20.9336416 2.82081652,21.1990753 L3.39997892,22.3723946 L4.69519038,22.5617091 C4.98803524,22.6045128 5.10475087,22.9644784 4.89274001,23.170977 L3.95582074,24.0835364 L4.17693691,25.3727561 C4.22698235,25.6645465 3.92069588,25.8870471 3.65866905,25.7492498 L2.500544,25.1402035 L1.34241895,25.7492498 C1.08039212,25.8870471 0.774105649,25.6645465 0.824151086,25.3727561 L1.04526726,24.0835364 L0.108347992,23.170977 C-0.103662865,22.9644784 0.0130527562,22.6045128 0.305897615,22.5617091 L1.60110908,22.3723946 Z" id="Shape-Copy-3"></path>
                    </g>
                </g>
            </g>
        </g>
    </g>
</svg>